%TF.GenerationSoftware,KiCad,Pcbnew,(6.0.8)*%
%TF.CreationDate,2023-05-29T22:58:42+07:00*%
%TF.ProjectId,hitmixbox002,6869746d-6978-4626-9f78-3030322e6b69,rev?*%
%TF.SameCoordinates,Original*%
%TF.FileFunction,Paste,Top*%
%TF.FilePolarity,Positive*%
%FSLAX46Y46*%
G04 Gerber Fmt 4.6, Leading zero omitted, Abs format (unit mm)*
G04 Created by KiCad (PCBNEW (6.0.8)) date 2023-05-29 22:58:42*
%MOMM*%
%LPD*%
G01*
G04 APERTURE LIST*
G04 Aperture macros list*
%AMRotRect*
0 Rectangle, with rotation*
0 The origin of the aperture is its center*
0 $1 length*
0 $2 width*
0 $3 Rotation angle, in degrees counterclockwise*
0 Add horizontal line*
21,1,$1,$2,0,0,$3*%
G04 Aperture macros list end*
%ADD10R,2.000000X2.000000*%
%ADD11R,1.800000X2.000000*%
%ADD12RotRect,2.000000X2.000000X165.000000*%
%ADD13RotRect,1.800000X2.000000X165.000000*%
G04 APERTURE END LIST*
D10*
%TO.C,SW11*%
X320043750Y-125143750D03*
X306343750Y-116363750D03*
D11*
X309143750Y-127343750D03*
D10*
X318843750Y-118903750D03*
%TD*%
%TO.C,SW15*%
X315281250Y-158481250D03*
X301581250Y-149701250D03*
X314081250Y-152241250D03*
D11*
X304381250Y-160681250D03*
%TD*%
D10*
%TO.C,SW12*%
X334918750Y-116363750D03*
X348618750Y-125143750D03*
D11*
X337718750Y-127343750D03*
D10*
X347418750Y-118903750D03*
%TD*%
D12*
%TO.C,SW3*%
X105576146Y-130271001D03*
X94615393Y-118244351D03*
X106032066Y-123933041D03*
D13*
X94478152Y-129574910D03*
%TD*%
D10*
%TO.C,SW13*%
X244431250Y-159226250D03*
X258131250Y-168006250D03*
D11*
X247231250Y-170206250D03*
D10*
X256931250Y-161766250D03*
%TD*%
%TO.C,SW9*%
X249193750Y-125888750D03*
X262893750Y-134668750D03*
X261693750Y-128428750D03*
D11*
X251993750Y-136868750D03*
%TD*%
D10*
%TO.C,SW10*%
X291468750Y-125143750D03*
X277768750Y-116363750D03*
D11*
X280568750Y-127343750D03*
D10*
X290268750Y-118903750D03*
%TD*%
D12*
%TO.C,SW2*%
X76214506Y-113313848D03*
X87175259Y-125340498D03*
X87631179Y-119002538D03*
D13*
X76077265Y-124644407D03*
%TD*%
D10*
%TO.C,SW6*%
X182518750Y-125888750D03*
X196218750Y-134668750D03*
X195018750Y-128428750D03*
D11*
X185318750Y-136868750D03*
%TD*%
D10*
%TO.C,SW5*%
X167643750Y-134668750D03*
X153943750Y-125888750D03*
X166443750Y-128428750D03*
D11*
X156743750Y-136868750D03*
%TD*%
D10*
%TO.C,SW7*%
X224793750Y-144193750D03*
X211093750Y-135413750D03*
X223593750Y-137953750D03*
D11*
X213893750Y-146393750D03*
%TD*%
D10*
%TO.C,SW14*%
X286706250Y-158481250D03*
X273006250Y-149701250D03*
X285506250Y-152241250D03*
D11*
X275806250Y-160681250D03*
%TD*%
D10*
%TO.C,SW16*%
X343856250Y-158481250D03*
X330156250Y-149701250D03*
X342656250Y-152241250D03*
D11*
X332956250Y-160681250D03*
%TD*%
D12*
%TO.C,SW4*%
X123977033Y-135201504D03*
X113016280Y-123174854D03*
X124432953Y-128863544D03*
D13*
X112879039Y-134505413D03*
%TD*%
D12*
%TO.C,SW1*%
X99545896Y-99843464D03*
X110506649Y-111870114D03*
D13*
X99408655Y-111174023D03*
D12*
X110962569Y-105532154D03*
%TD*%
D10*
%TO.C,SW8*%
X230143750Y-197326250D03*
X243843750Y-206106250D03*
X242643750Y-199866250D03*
D11*
X232943750Y-208306250D03*
%TD*%
M02*
