M48
; DRILL file {KiCad (6.0.8)} date Mon May 29 22:58:45 2023
; FORMAT={-:-/ absolute / inch / decimal}
; #@! TF.CreationDate,2023-05-29T22:58:45+07:00
; #@! TF.GenerationSoftware,Kicad,Pcbnew,(6.0.8)
; #@! TF.FileFunction,Plated,1,2,PTH
FMAT,2
INCH
; #@! TA.AperFunction,Plated,PTH,ViaDrill
T1C0.0157
; #@! TA.AperFunction,Plated,PTH,ComponentDrill
T2C0.0402
; #@! TA.AperFunction,Plated,PTH,ComponentDrill
T3C0.0433
%
G90
G05
T1
X2.9062Y-4.4375
X3.5Y-4.625
X3.625Y-4.625
X3.8438Y-3.9062
X4.2188Y-4.7812
X4.375Y-4.8438
X4.4375Y-4.0625
X4.9688Y-4.9688
X5.3125Y-5.5312
X5.375Y-5.4688
X5.4688Y-5.3438
X5.9688Y-4.9688
X6.5938Y-4.9688
X7.0938Y-4.9688
X7.5312Y-3.9062
X7.7188Y-4.9688
X8.2188Y-5.3438
X8.8438Y-5.3438
X8.9688Y-7.7812
X9.0625Y-4.0938
X9.1875Y-4.4375
X9.2812Y-4.1875
X9.375Y-3.6562
X9.5Y-4.1562
X9.5312Y-6.2812
X9.5938Y-7.7812
X9.7188Y-4.9688
X10.1562Y-6.2812
X10.3438Y-4.9688
X10.6562Y-5.9062
X10.7188Y-4.25
X10.8438Y-4.5938
X11.2812Y-5.9062
X11.4688Y-4.5938
X11.75Y-4.2188
X11.7812Y-5.9062
X11.9688Y-4.5938
X12.4062Y-5.9062
X12.5938Y-4.5938
X12.9062Y-5.9062
X13.0938Y-4.5938
X13.5312Y-5.9062
X13.7188Y-4.5938
T2
X7.9Y-2.8
X7.9Y-2.9
X7.9Y-3.0
X7.9Y-3.1
X7.9Y-3.2
X7.9Y-3.3
X7.9Y-3.4
X7.9Y-3.5
X7.9Y-3.6
X7.9Y-3.7
X7.9Y-3.8
X7.9Y-3.9
X7.9Y-4.0
X7.9Y-4.1
X7.9Y-4.2
X7.9Y-4.3
X7.9Y-4.4
X7.9Y-4.5
X7.9Y-4.6
X7.9Y-4.7
X8.15Y-4.6909
X8.25Y-4.6909
X8.35Y-4.6909
X8.6Y-2.8
X8.6Y-2.9
X8.6Y-3.0
X8.6Y-3.1
X8.6Y-3.2
X8.6Y-3.3
X8.6Y-3.4
X8.6Y-3.5
X8.6Y-3.6
X8.6Y-3.7
X8.6Y-3.8
X8.6Y-3.9
X8.6Y-4.0
X8.6Y-4.1
X8.6Y-4.2
X8.6Y-4.3
X8.6Y-4.4
X8.6Y-4.5
X8.6Y-4.6
X8.6Y-4.7
T3
X4.997Y-3.8802
X4.997Y-4.0573
X5.253Y-3.8802
X5.253Y-4.0573
X5.4033Y-3.8802
X5.4033Y-4.0573
X5.6592Y-3.8802
X5.6592Y-4.0573
X5.8095Y-3.8802
X5.8095Y-4.0573
X6.0655Y-3.8802
X6.0655Y-4.0573
X6.2158Y-3.8802
X6.2158Y-4.0573
X6.4717Y-3.8802
X6.4717Y-4.0573
X6.622Y-3.8802
X6.622Y-4.0573
X6.878Y-3.8802
X6.878Y-4.0573
X7.0283Y-3.8802
X7.0283Y-4.0573
X7.2842Y-3.8802
X7.2842Y-4.0573
T0
M30
