M48
; DRILL file {KiCad (6.0.8)} date Mon May 29 22:58:45 2023
; FORMAT={-:-/ absolute / inch / decimal}
; #@! TF.CreationDate,2023-05-29T22:58:45+07:00
; #@! TF.GenerationSoftware,Kicad,Pcbnew,(6.0.8)
; #@! TF.FileFunction,NonPlated,1,2,NPTH
FMAT,2
INCH
; #@! TA.AperFunction,NonPlated,NPTH,ComponentDrill
T1C0.0591
; #@! TA.AperFunction,NonPlated,NPTH,ComponentDrill
T2C0.0669
; #@! TA.AperFunction,NonPlated,NPTH,ComponentDrill
T3C0.0709
; #@! TA.AperFunction,NonPlated,NPTH,ComponentDrill
T4C0.0748
; #@! TA.AperFunction,NonPlated,NPTH,ComponentDrill
T5C0.1181
; #@! TA.AperFunction,NonPlated,NPTH,ComponentDrill
T6C0.1575
; #@! TA.AperFunction,NonPlated,NPTH,ComponentDrill
T7C0.2520
%
G90
G05
T1
X8.1545Y-2.9244
X8.3455Y-2.9244
T2
X2.9686Y-4.6597
X3.355Y-4.7632
X3.693Y-4.8538
X3.8871Y-4.1293
X4.0794Y-4.9573
X4.2735Y-4.2329
X4.4175Y-5.0479
X4.8038Y-5.1514
X6.0812Y-5.1562
X6.4813Y-5.1562
X7.2062Y-5.1562
X7.6063Y-5.1562
X8.3312Y-5.5312
X8.7312Y-5.5312
X9.0812Y-7.9688
X9.4812Y-7.9688
X9.6437Y-6.4688
X9.8312Y-5.1562
X10.0437Y-6.4688
X10.2312Y-5.1562
X10.7687Y-6.0938
X10.9562Y-4.7812
X11.1687Y-6.0938
X11.3562Y-4.7812
X11.8937Y-6.0938
X12.0812Y-4.7812
X12.2937Y-6.0938
X12.4812Y-4.7812
X13.0187Y-6.0938
X13.2062Y-4.7812
X13.4187Y-6.0938
X13.6062Y-4.7812
T3
X8.1427Y-2.8051
X8.3573Y-2.8051
T4
X2.9526Y-4.6554
X3.3709Y-4.7675
X3.6771Y-4.8495
X3.8712Y-4.125
X4.0954Y-4.9616
X4.2895Y-4.2371
X4.4015Y-5.0436
X4.8198Y-5.1557
X6.0647Y-5.1562
X6.4978Y-5.1562
X7.1897Y-5.1562
X7.6228Y-5.1562
X8.3147Y-5.5312
X8.7478Y-5.5312
X9.0647Y-7.9688
X9.4978Y-7.9688
X9.6272Y-6.4688
X9.8147Y-5.1562
X10.0603Y-6.4688
X10.2478Y-5.1562
X10.7522Y-6.0938
X10.9397Y-4.7812
X11.1853Y-6.0938
X11.3728Y-4.7812
X11.8772Y-6.0938
X12.0647Y-4.7812
X12.3103Y-6.0938
X12.4978Y-4.7812
X13.0022Y-6.0938
X13.1897Y-4.7812
X13.4353Y-6.0938
X13.6228Y-4.7812
T5
X2.9339Y-4.8012
X3.0428Y-4.576
X3.1016Y-4.9358
X3.1169Y-4.4924
X3.3101Y-4.5441
X3.3142Y-4.9031
X3.3325Y-4.6537
X3.6584Y-4.9953
X3.7672Y-4.7701
X3.8261Y-5.1299
X3.8414Y-4.6865
X3.8525Y-4.2708
X3.9613Y-4.0457
X4.0202Y-4.4055
X4.0346Y-4.7382
X4.0355Y-3.962
X4.0387Y-5.0972
X4.057Y-4.8478
X4.2287Y-4.0138
X4.2328Y-4.3727
X4.2511Y-4.1233
X4.3828Y-5.1894
X4.4916Y-4.9642
X4.5505Y-5.324
X4.5658Y-4.8806
X4.759Y-4.9323
X4.7631Y-5.2913
X4.7814Y-5.0419
X6.0844Y-5.3019
X6.1312Y-5.0562
X6.1812Y-4.9562
X6.2812Y-5.3885
X6.3812Y-4.9562
X6.4312Y-5.0562
X6.4781Y-5.3019
X7.2094Y-5.3019
X7.2562Y-5.0562
X7.3062Y-4.9562
X7.4062Y-5.3885
X7.5062Y-4.9562
X7.5562Y-5.0562
X7.6031Y-5.3019
X8.3344Y-5.6769
X8.3812Y-5.4312
X8.4313Y-5.3312
X8.5312Y-5.7635
X8.6312Y-5.3312
X8.6813Y-5.4312
X8.7281Y-5.6769
X9.0844Y-8.1144
X9.1312Y-7.8687
X9.1813Y-7.7687
X9.2812Y-8.201
X9.3812Y-7.7687
X9.4313Y-7.8687
X9.4781Y-8.1144
X9.6469Y-6.6144
X9.6937Y-6.3687
X9.7438Y-6.2687
X9.8344Y-5.3019
X9.8438Y-6.701
X9.8812Y-5.0562
X9.9313Y-4.9562
X9.9437Y-6.2687
X9.9938Y-6.3687
X10.0312Y-5.3885
X10.0406Y-6.6144
X10.1312Y-4.9562
X10.1813Y-5.0562
X10.2281Y-5.3019
X10.7719Y-6.2394
X10.8187Y-5.9937
X10.8688Y-5.8937
X10.9594Y-4.9269
X10.9688Y-6.326
X11.0062Y-4.6812
X11.0563Y-4.5812
X11.0687Y-5.8937
X11.1188Y-5.9937
X11.1562Y-5.0135
X11.1656Y-6.2394
X11.2562Y-4.5812
X11.3063Y-4.6812
X11.3531Y-4.9269
X11.8969Y-6.2394
X11.9437Y-5.9937
X11.9938Y-5.8937
X12.0844Y-4.9269
X12.0938Y-6.326
X12.1312Y-4.6812
X12.1813Y-4.5812
X12.1937Y-5.8937
X12.2438Y-5.9937
X12.2812Y-5.0135
X12.2906Y-6.2394
X12.3812Y-4.5812
X12.4313Y-4.6812
X12.4781Y-4.9269
X13.0219Y-6.2394
X13.0687Y-5.9937
X13.1188Y-5.8937
X13.2094Y-4.9269
X13.2188Y-6.326
X13.2562Y-4.6812
X13.3063Y-4.5812
X13.3187Y-5.8937
X13.3688Y-5.9937
X13.4062Y-5.0135
X13.4156Y-6.2394
X13.5062Y-4.5812
X13.5563Y-4.6812
X13.6031Y-4.9269
T6
X3.1618Y-4.7114
X3.8862Y-4.9055
X4.0803Y-4.1811
X4.6107Y-5.0997
X6.2812Y-5.1562
X7.4062Y-5.1562
X8.5312Y-5.5312
X9.2812Y-7.9688
X9.8438Y-6.4688
X10.0312Y-5.1562
X10.9688Y-6.0938
X11.1562Y-4.7812
X12.0938Y-6.0938
X12.2812Y-4.7812
X13.2188Y-6.0938
X13.4062Y-4.7812
T7
X3.0625Y-3.3125
X3.0625Y-8.125
X6.25Y-3.3125
X6.25Y-8.125
X8.25Y-6.6875
X10.3125Y-3.3125
X10.3125Y-8.125
X13.4375Y-3.3125
X13.4375Y-8.125
T0
M30
