%TF.GenerationSoftware,KiCad,Pcbnew,(6.0.8)*%
%TF.CreationDate,2023-05-29T22:58:42+07:00*%
%TF.ProjectId,hitmixbox002,6869746d-6978-4626-9f78-3030322e6b69,rev?*%
%TF.SameCoordinates,Original*%
%TF.FileFunction,Legend,Bot*%
%TF.FilePolarity,Positive*%
%FSLAX46Y46*%
G04 Gerber Fmt 4.6, Leading zero omitted, Abs format (unit mm)*
G04 Created by KiCad (PCBNEW (6.0.8)) date 2023-05-29 22:58:42*
%MOMM*%
%LPD*%
G01*
G04 APERTURE LIST*
%ADD10C,0.150000*%
G04 APERTURE END LIST*
D10*
%TO.C,SW11*%
X304668750Y-122843750D02*
X304643750Y-127443750D01*
X305843750Y-120547750D02*
X309453750Y-120547750D01*
X316743750Y-114639750D02*
X308118750Y-114639750D01*
X316743750Y-118547750D02*
X316743750Y-114639750D01*
X309368750Y-122818750D02*
X304668750Y-122818750D01*
X314243750Y-125043750D02*
X314243750Y-129643750D01*
X309663750Y-128943750D02*
X309663750Y-129643750D01*
X308443750Y-127468750D02*
X304668750Y-127468750D01*
X314218750Y-125018750D02*
X311668750Y-125018750D01*
X305843750Y-116593750D02*
X305843750Y-120538750D01*
X316743750Y-118593750D02*
X311693750Y-118639750D01*
X314218750Y-129668750D02*
X309668750Y-129668750D01*
X308118750Y-114639750D02*
G75*
G03*
X305854750Y-116523750I-190000J-2074000D01*
G01*
X311718750Y-118643750D02*
G75*
G03*
X309458750Y-120523750I-190000J-2070000D01*
G01*
X309663750Y-128893750D02*
G75*
G03*
X308443750Y-127473750I-1320000J100000D01*
G01*
X309373750Y-122843750D02*
G75*
G03*
X311743750Y-125013750I2270000J100000D01*
G01*
%TO.C,SW15*%
X309456250Y-158356250D02*
X306906250Y-158356250D01*
X311981250Y-147977250D02*
X303356250Y-147977250D01*
X303681250Y-160806250D02*
X299906250Y-160806250D01*
X301081250Y-149931250D02*
X301081250Y-153876250D01*
X311981250Y-151931250D02*
X306931250Y-151977250D01*
X304606250Y-156156250D02*
X299906250Y-156156250D01*
X309456250Y-163006250D02*
X304906250Y-163006250D01*
X309481250Y-158381250D02*
X309481250Y-162981250D01*
X301081250Y-153885250D02*
X304691250Y-153885250D01*
X299906250Y-156181250D02*
X299881250Y-160781250D01*
X304901250Y-162281250D02*
X304901250Y-162981250D01*
X311981250Y-151885250D02*
X311981250Y-147977250D01*
X304611250Y-156181250D02*
G75*
G03*
X306981250Y-158351250I2270000J100000D01*
G01*
X306956250Y-151981250D02*
G75*
G03*
X304696250Y-153861250I-190000J-2070000D01*
G01*
X304901250Y-162231250D02*
G75*
G03*
X303681250Y-160811250I-1320000J100000D01*
G01*
X303356250Y-147977250D02*
G75*
G03*
X301092250Y-149861250I-190000J-2074000D01*
G01*
%TO.C,SW12*%
X338238750Y-128943750D02*
X338238750Y-129643750D01*
X337018750Y-127468750D02*
X333243750Y-127468750D01*
X345318750Y-118593750D02*
X340268750Y-118639750D01*
X345318750Y-114639750D02*
X336693750Y-114639750D01*
X333243750Y-122843750D02*
X333218750Y-127443750D01*
X342793750Y-125018750D02*
X340243750Y-125018750D01*
X345318750Y-118547750D02*
X345318750Y-114639750D01*
X342818750Y-125043750D02*
X342818750Y-129643750D01*
X337943750Y-122818750D02*
X333243750Y-122818750D01*
X334418750Y-120547750D02*
X338028750Y-120547750D01*
X342793750Y-129668750D02*
X338243750Y-129668750D01*
X334418750Y-116593750D02*
X334418750Y-120538750D01*
X336693750Y-114639750D02*
G75*
G03*
X334429750Y-116523750I-190000J-2074000D01*
G01*
X340293750Y-118643750D02*
G75*
G03*
X338033750Y-120523750I-190000J-2070000D01*
G01*
X338238750Y-128893750D02*
G75*
G03*
X337018750Y-127473750I-1320000J100000D01*
G01*
X337948750Y-122843750D02*
G75*
G03*
X340318750Y-125013750I2270000J100000D01*
G01*
%TO.C,SW3*%
X105107226Y-119270813D02*
X96776115Y-117038499D01*
X95866642Y-125262330D02*
X91326790Y-124045880D01*
X104095761Y-123045651D02*
X105107226Y-119270813D01*
X94566323Y-131254977D02*
X94385150Y-131931125D01*
X94072902Y-118337105D02*
X93051861Y-122147682D01*
X99999658Y-128673258D02*
X98809090Y-133116517D01*
X98778472Y-133134194D02*
X94383509Y-131956568D01*
X91320320Y-124070029D02*
X90105604Y-128506817D01*
X99981980Y-128642639D02*
X97518869Y-127982651D01*
X93769652Y-129514477D02*
X90123282Y-128537436D01*
X104083855Y-123090084D02*
X99194024Y-121827480D01*
X93049531Y-122156375D02*
X96536524Y-123090712D01*
X95865001Y-125287772D02*
G75*
G03*
X97592608Y-127997232I2218533J-490927D01*
G01*
X99217137Y-121837814D02*
G75*
G03*
X96547565Y-123068824I-719281J-1950291D01*
G01*
X96776115Y-117038498D02*
G75*
G03*
X94101644Y-118272337I-720316J-1954155D01*
G01*
X94579264Y-131206681D02*
G75*
G03*
X93768358Y-129519307I-1249140J438234D01*
G01*
%TO.C,SW13*%
X254831250Y-161456250D02*
X249781250Y-161502250D01*
X254831250Y-157502250D02*
X246206250Y-157502250D01*
X243931250Y-159456250D02*
X243931250Y-163401250D01*
X246531250Y-170331250D02*
X242756250Y-170331250D01*
X252306250Y-172531250D02*
X247756250Y-172531250D01*
X243931250Y-163410250D02*
X247541250Y-163410250D01*
X252331250Y-167906250D02*
X252331250Y-172506250D01*
X247456250Y-165681250D02*
X242756250Y-165681250D01*
X247751250Y-171806250D02*
X247751250Y-172506250D01*
X254831250Y-161410250D02*
X254831250Y-157502250D01*
X252306250Y-167881250D02*
X249756250Y-167881250D01*
X242756250Y-165706250D02*
X242731250Y-170306250D01*
X249806250Y-161506250D02*
G75*
G03*
X247546250Y-163386250I-190000J-2070000D01*
G01*
X247461250Y-165706250D02*
G75*
G03*
X249831250Y-167876250I2270000J100000D01*
G01*
X247751250Y-171756250D02*
G75*
G03*
X246531250Y-170336250I-1320000J100000D01*
G01*
X246206250Y-157502250D02*
G75*
G03*
X243942250Y-159386250I-190000J-2074000D01*
G01*
%TO.C,SW9*%
X259593750Y-128072750D02*
X259593750Y-124164750D01*
X257068750Y-134543750D02*
X254518750Y-134543750D01*
X248693750Y-126118750D02*
X248693750Y-130063750D01*
X257093750Y-134568750D02*
X257093750Y-139168750D01*
X248693750Y-130072750D02*
X252303750Y-130072750D01*
X259593750Y-128118750D02*
X254543750Y-128164750D01*
X247518750Y-132368750D02*
X247493750Y-136968750D01*
X259593750Y-124164750D02*
X250968750Y-124164750D01*
X251293750Y-136993750D02*
X247518750Y-136993750D01*
X252218750Y-132343750D02*
X247518750Y-132343750D01*
X252513750Y-138468750D02*
X252513750Y-139168750D01*
X257068750Y-139193750D02*
X252518750Y-139193750D01*
X250968750Y-124164750D02*
G75*
G03*
X248704750Y-126048750I-190000J-2074000D01*
G01*
X252513750Y-138418750D02*
G75*
G03*
X251293750Y-136998750I-1320000J100000D01*
G01*
X252223750Y-132368750D02*
G75*
G03*
X254593750Y-134538750I2270000J100000D01*
G01*
X254568750Y-128168750D02*
G75*
G03*
X252308750Y-130048750I-190000J-2070000D01*
G01*
%TO.C,SW10*%
X288168750Y-118547750D02*
X288168750Y-114639750D01*
X285643750Y-125018750D02*
X283093750Y-125018750D01*
X279868750Y-127468750D02*
X276093750Y-127468750D01*
X288168750Y-118593750D02*
X283118750Y-118639750D01*
X277268750Y-120547750D02*
X280878750Y-120547750D01*
X281088750Y-128943750D02*
X281088750Y-129643750D01*
X285643750Y-129668750D02*
X281093750Y-129668750D01*
X280793750Y-122818750D02*
X276093750Y-122818750D01*
X288168750Y-114639750D02*
X279543750Y-114639750D01*
X285668750Y-125043750D02*
X285668750Y-129643750D01*
X277268750Y-116593750D02*
X277268750Y-120538750D01*
X276093750Y-122843750D02*
X276068750Y-127443750D01*
X281088750Y-128893750D02*
G75*
G03*
X279868750Y-127473750I-1320000J100000D01*
G01*
X283143750Y-118643750D02*
G75*
G03*
X280883750Y-120523750I-190000J-2070000D01*
G01*
X279543750Y-114639750D02*
G75*
G03*
X277279750Y-116523750I-190000J-2074000D01*
G01*
X280798750Y-122843750D02*
G75*
G03*
X283168750Y-125013750I2270000J100000D01*
G01*
%TO.C,SW2*%
X85682968Y-118159581D02*
X80793137Y-116896977D01*
X81598771Y-123742755D02*
X80408203Y-128186014D01*
X75368765Y-124583974D02*
X71722395Y-123606933D01*
X86706339Y-114340310D02*
X78375228Y-112107996D01*
X74648644Y-117225872D02*
X78135637Y-118160209D01*
X76165436Y-126324474D02*
X75984263Y-127000622D01*
X85694874Y-118115148D02*
X86706339Y-114340310D01*
X72919433Y-119139526D02*
X71704717Y-123576314D01*
X80377585Y-128203691D02*
X75982622Y-127026065D01*
X75672015Y-113406602D02*
X74650974Y-117217179D01*
X77465755Y-120331827D02*
X72925903Y-119115377D01*
X81581093Y-123712136D02*
X79117982Y-123052148D01*
X77464114Y-120357269D02*
G75*
G03*
X79191721Y-123066729I2218533J-490927D01*
G01*
X80816250Y-116907311D02*
G75*
G03*
X78146678Y-118138321I-719281J-1950291D01*
G01*
X78375228Y-112107995D02*
G75*
G03*
X75700757Y-113341834I-720316J-1954155D01*
G01*
X76178377Y-126276178D02*
G75*
G03*
X75367471Y-124588804I-1249140J438234D01*
G01*
%TO.C,SW6*%
X192918750Y-128118750D02*
X187868750Y-128164750D01*
X190393750Y-134543750D02*
X187843750Y-134543750D01*
X192918750Y-124164750D02*
X184293750Y-124164750D01*
X185838750Y-138468750D02*
X185838750Y-139168750D01*
X182018750Y-130072750D02*
X185628750Y-130072750D01*
X190393750Y-139193750D02*
X185843750Y-139193750D01*
X185543750Y-132343750D02*
X180843750Y-132343750D01*
X182018750Y-126118750D02*
X182018750Y-130063750D01*
X184618750Y-136993750D02*
X180843750Y-136993750D01*
X192918750Y-128072750D02*
X192918750Y-124164750D01*
X180843750Y-132368750D02*
X180818750Y-136968750D01*
X190418750Y-134568750D02*
X190418750Y-139168750D01*
X185838750Y-138418750D02*
G75*
G03*
X184618750Y-136998750I-1320000J100000D01*
G01*
X185548750Y-132368750D02*
G75*
G03*
X187918750Y-134538750I2270000J100000D01*
G01*
X184293750Y-124164750D02*
G75*
G03*
X182029750Y-126048750I-190000J-2074000D01*
G01*
X187893750Y-128168750D02*
G75*
G03*
X185633750Y-130048750I-190000J-2070000D01*
G01*
%TO.C,SW5*%
X156968750Y-132343750D02*
X152268750Y-132343750D01*
X164343750Y-124164750D02*
X155718750Y-124164750D01*
X153443750Y-126118750D02*
X153443750Y-130063750D01*
X164343750Y-128072750D02*
X164343750Y-124164750D01*
X153443750Y-130072750D02*
X157053750Y-130072750D01*
X161843750Y-134568750D02*
X161843750Y-139168750D01*
X157263750Y-138468750D02*
X157263750Y-139168750D01*
X152268750Y-132368750D02*
X152243750Y-136968750D01*
X164343750Y-128118750D02*
X159293750Y-128164750D01*
X161818750Y-139193750D02*
X157268750Y-139193750D01*
X156043750Y-136993750D02*
X152268750Y-136993750D01*
X161818750Y-134543750D02*
X159268750Y-134543750D01*
X155718750Y-124164750D02*
G75*
G03*
X153454750Y-126048750I-190000J-2074000D01*
G01*
X156973750Y-132368750D02*
G75*
G03*
X159343750Y-134538750I2270000J100000D01*
G01*
X159318750Y-128168750D02*
G75*
G03*
X157058750Y-130048750I-190000J-2070000D01*
G01*
X157263750Y-138418750D02*
G75*
G03*
X156043750Y-136998750I-1320000J100000D01*
G01*
%TO.C,SW7*%
X221493750Y-137597750D02*
X221493750Y-133689750D01*
X210593750Y-135643750D02*
X210593750Y-139588750D01*
X214118750Y-141868750D02*
X209418750Y-141868750D01*
X221493750Y-133689750D02*
X212868750Y-133689750D01*
X210593750Y-139597750D02*
X214203750Y-139597750D01*
X218968750Y-148718750D02*
X214418750Y-148718750D01*
X214413750Y-147993750D02*
X214413750Y-148693750D01*
X221493750Y-137643750D02*
X216443750Y-137689750D01*
X209418750Y-141893750D02*
X209393750Y-146493750D01*
X213193750Y-146518750D02*
X209418750Y-146518750D01*
X218993750Y-144093750D02*
X218993750Y-148693750D01*
X218968750Y-144068750D02*
X216418750Y-144068750D01*
X216468750Y-137693750D02*
G75*
G03*
X214208750Y-139573750I-190000J-2070000D01*
G01*
X214413750Y-147943750D02*
G75*
G03*
X213193750Y-146523750I-1320000J100000D01*
G01*
X212868750Y-133689750D02*
G75*
G03*
X210604750Y-135573750I-190000J-2074000D01*
G01*
X214123750Y-141893750D02*
G75*
G03*
X216493750Y-144063750I2270000J100000D01*
G01*
%TO.C,SW14*%
X271331250Y-156181250D02*
X271306250Y-160781250D01*
X283406250Y-151931250D02*
X278356250Y-151977250D01*
X276031250Y-156156250D02*
X271331250Y-156156250D01*
X272506250Y-153885250D02*
X276116250Y-153885250D01*
X276326250Y-162281250D02*
X276326250Y-162981250D01*
X283406250Y-151885250D02*
X283406250Y-147977250D01*
X280881250Y-158356250D02*
X278331250Y-158356250D01*
X283406250Y-147977250D02*
X274781250Y-147977250D01*
X280906250Y-158381250D02*
X280906250Y-162981250D01*
X280881250Y-163006250D02*
X276331250Y-163006250D01*
X275106250Y-160806250D02*
X271331250Y-160806250D01*
X272506250Y-149931250D02*
X272506250Y-153876250D01*
X276036250Y-156181250D02*
G75*
G03*
X278406250Y-158351250I2270000J100000D01*
G01*
X278381250Y-151981250D02*
G75*
G03*
X276121250Y-153861250I-190000J-2070000D01*
G01*
X274781250Y-147977250D02*
G75*
G03*
X272517250Y-149861250I-190000J-2074000D01*
G01*
X276326250Y-162231250D02*
G75*
G03*
X275106250Y-160811250I-1320000J100000D01*
G01*
%TO.C,SW16*%
X338056250Y-158381250D02*
X338056250Y-162981250D01*
X340556250Y-147977250D02*
X331931250Y-147977250D01*
X338031250Y-163006250D02*
X333481250Y-163006250D01*
X333476250Y-162281250D02*
X333476250Y-162981250D01*
X333181250Y-156156250D02*
X328481250Y-156156250D01*
X340556250Y-151885250D02*
X340556250Y-147977250D01*
X329656250Y-153885250D02*
X333266250Y-153885250D01*
X332256250Y-160806250D02*
X328481250Y-160806250D01*
X329656250Y-149931250D02*
X329656250Y-153876250D01*
X338031250Y-158356250D02*
X335481250Y-158356250D01*
X328481250Y-156181250D02*
X328456250Y-160781250D01*
X340556250Y-151931250D02*
X335506250Y-151977250D01*
X335531250Y-151981250D02*
G75*
G03*
X333271250Y-153861250I-190000J-2070000D01*
G01*
X333476250Y-162231250D02*
G75*
G03*
X332256250Y-160811250I-1320000J100000D01*
G01*
X331931250Y-147977250D02*
G75*
G03*
X329667250Y-149861250I-190000J-2074000D01*
G01*
X333186250Y-156181250D02*
G75*
G03*
X335556250Y-158351250I2270000J100000D01*
G01*
%TO.C,SW4*%
X109721207Y-129000532D02*
X108506491Y-133437320D01*
X117179359Y-138064697D02*
X112784396Y-136887071D01*
X114267529Y-130192833D02*
X109727677Y-128976383D01*
X122484742Y-128020587D02*
X117594911Y-126757983D01*
X112473789Y-123267608D02*
X111452748Y-127078185D01*
X118400545Y-133603761D02*
X117209977Y-138047020D01*
X123508113Y-124201316D02*
X115177002Y-121969002D01*
X118382867Y-133573142D02*
X115919756Y-132913154D01*
X122496648Y-127976154D02*
X123508113Y-124201316D01*
X112170539Y-134444980D02*
X108524169Y-133467939D01*
X112967210Y-136185480D02*
X112786037Y-136861628D01*
X111450418Y-127086878D02*
X114937411Y-128021215D01*
X112980151Y-136137184D02*
G75*
G03*
X112169245Y-134449810I-1249140J438234D01*
G01*
X114265888Y-130218275D02*
G75*
G03*
X115993495Y-132927735I2218533J-490927D01*
G01*
X115177002Y-121969001D02*
G75*
G03*
X112502531Y-123202840I-720316J-1954155D01*
G01*
X117618024Y-126768317D02*
G75*
G03*
X114948452Y-127999327I-719281J-1950291D01*
G01*
%TO.C,SW1*%
X104930161Y-110272371D02*
X103739593Y-114715630D01*
X100797145Y-106861443D02*
X96257293Y-105644993D01*
X103708975Y-114733307D02*
X99314012Y-113555681D01*
X97980034Y-103755488D02*
X101467027Y-104689825D01*
X99496826Y-112854090D02*
X99315653Y-113530238D01*
X99003405Y-99936218D02*
X97982364Y-103746795D01*
X109026264Y-104644764D02*
X110037729Y-100869926D01*
X104912483Y-110241752D02*
X102449372Y-109581764D01*
X96250823Y-105669142D02*
X95036107Y-110105930D01*
X109014358Y-104689197D02*
X104124527Y-103426593D01*
X110037729Y-100869926D02*
X101706618Y-98637612D01*
X98700155Y-111113590D02*
X95053785Y-110136549D01*
X101706618Y-98637611D02*
G75*
G03*
X99032147Y-99871450I-720316J-1954155D01*
G01*
X99509767Y-112805794D02*
G75*
G03*
X98698861Y-111118420I-1249140J438234D01*
G01*
X104147640Y-103436927D02*
G75*
G03*
X101478068Y-104667937I-719281J-1950291D01*
G01*
X100795504Y-106886885D02*
G75*
G03*
X102523111Y-109596345I2218533J-490927D01*
G01*
%TO.C,SW8*%
X240543750Y-199510250D02*
X240543750Y-195602250D01*
X228468750Y-203806250D02*
X228443750Y-208406250D01*
X238018750Y-205981250D02*
X235468750Y-205981250D01*
X240543750Y-195602250D02*
X231918750Y-195602250D01*
X233463750Y-209906250D02*
X233463750Y-210606250D01*
X229643750Y-201510250D02*
X233253750Y-201510250D01*
X233168750Y-203781250D02*
X228468750Y-203781250D01*
X229643750Y-197556250D02*
X229643750Y-201501250D01*
X240543750Y-199556250D02*
X235493750Y-199602250D01*
X238043750Y-206006250D02*
X238043750Y-210606250D01*
X238018750Y-210631250D02*
X233468750Y-210631250D01*
X232243750Y-208431250D02*
X228468750Y-208431250D01*
X235518750Y-199606250D02*
G75*
G03*
X233258750Y-201486250I-190000J-2070000D01*
G01*
X233173750Y-203806250D02*
G75*
G03*
X235543750Y-205976250I2270000J100000D01*
G01*
X233463750Y-209856250D02*
G75*
G03*
X232243750Y-208436250I-1320000J100000D01*
G01*
X231918750Y-195602250D02*
G75*
G03*
X229654750Y-197486250I-190000J-2074000D01*
G01*
%TD*%
M02*
